<svg width="640" height="480" viewBox="0 0 640 480" fill="none" xmlns="http://www.w3.org/2000/svg">
  <defs>
    <linearGradient id="aboutBg" x1="80" y1="40" x2="560" y2="440" gradientUnits="userSpaceOnUse">
      <stop stop-color="#0F172A" />
      <stop offset="1" stop-color="#050B13" />
    </linearGradient>
    <radialGradient id="aboutGlow" cx="0" cy="0" r="1" gradientUnits="userSpaceOnUse" gradientTransform="translate(320 200) rotate(90) scale(220 300)">
      <stop offset="0.08" stop-color="#4CE0D2" stop-opacity="0.6" />
      <stop offset="1" stop-color="#050B13" stop-opacity="0" />
    </radialGradient>
    <linearGradient id="aboutCard" x1="180" y1="160" x2="460" y2="340" gradientUnits="userSpaceOnUse">
      <stop stop-color="#1A2642" />
      <stop offset="1" stop-color="#0C152B" />
    </linearGradient>
  </defs>
  <rect x="32" y="24" width="576" height="432" rx="36" fill="url(#aboutBg)" />
  <rect x="32" y="24" width="576" height="432" rx="36" fill="url(#aboutGlow)" />
  <rect x="120" y="120" width="400" height="240" rx="28" fill="url(#aboutCard)" stroke="#25335A" stroke-opacity="0.6" />
  <rect x="148" y="150" width="132" height="10" rx="5" fill="#7B61FF" />
  <rect x="148" y="176" width="220" height="10" rx="5" fill="#4CE0D2" fill-opacity="0.4" />
  <rect x="148" y="202" width="180" height="10" rx="5" fill="#7B61FF" fill-opacity="0.38" />
  <rect x="320" y="150" width="162" height="10" rx="5" fill="#4CE0D2" fill-opacity="0.32" />
  <rect x="320" y="176" width="144" height="10" rx="5" fill="#7B61FF" fill-opacity="0.32" />
  <rect x="148" y="240" width="316" height="132" rx="22" fill="#101B33" />
  <rect x="168" y="260" width="84" height="68" rx="16" fill="#1E2A46" />
  <rect x="264" y="260" width="180" height="12" rx="6" fill="#7B61FF" fill-opacity="0.5" />
  <rect x="264" y="288" width="140" height="12" rx="6" fill="#4CE0D2" fill-opacity="0.4" />
  <rect x="264" y="316" width="156" height="12" rx="6" fill="#7B61FF" fill-opacity="0.36" />
  <rect x="120" y="120" width="400" height="240" rx="28" stroke="#63FFD9" stroke-opacity="0.12" stroke-width="2" stroke-dasharray="12 16" />
</svg>
