<svg width="520" height="360" viewBox="0 0 520 360" fill="none" xmlns="http://www.w3.org/2000/svg">
  <defs>
    <linearGradient id="capSixBg" x1="96" y1="48" x2="424" y2="312" gradientUnits="userSpaceOnUse">
      <stop stop-color="#080F21" />
      <stop offset="1" stop-color="#172039" />
    </linearGradient>
    <radialGradient id="capSixGlow" cx="0" cy="0" r="1" gradientUnits="userSpaceOnUse" gradientTransform="translate(260 180) rotate(90) scale(210 260)">
      <stop offset="0.08" stop-color="#7B61FF" stop-opacity="0.36" />
      <stop offset="1" stop-color="#050B18" stop-opacity="0" />
    </radialGradient>
  </defs>
  <rect x="24" y="20" width="472" height="320" rx="28" fill="url(#capSixBg)" />
  <rect x="24" y="20" width="472" height="320" rx="28" fill="url(#capSixGlow)" />
  <rect x="116" y="92" width="288" height="196" rx="28" fill="#101B34" stroke="#233358" stroke-opacity="0.55" />
  <rect x="148" y="124" width="148" height="12" rx="6" fill="#7B61FF" />
  <rect x="148" y="152" width="204" height="12" rx="6" fill="#63FFD9" fill-opacity="0.32" />
  <rect x="148" y="180" width="176" height="12" rx="6" fill="#7B61FF" fill-opacity="0.3" />
  <rect x="148" y="208" width="216" height="12" rx="6" fill="#63FFD9" fill-opacity="0.28" />
  <rect x="148" y="236" width="164" height="12" rx="6" fill="#7B61FF" fill-opacity="0.26" />
  <path d="M320 140C333.255 140 344 150.745 344 164V220C344 233.255 333.255 244 320 244C306.745 244 296 233.255 296 220V164C296 150.745 306.745 140 320 140Z" fill="#121F38" stroke="#7B61FF" stroke-opacity="0.4" stroke-width="2" />
  <rect x="304" y="156" width="32" height="32" rx="12" fill="#63FFD9" fill-opacity="0.28" />
  <rect x="304" y="200" width="32" height="32" rx="12" fill="#7B61FF" fill-opacity="0.24" />
</svg>
