<svg width="480" height="400" viewBox="0 0 480 400" fill="none" xmlns="http://www.w3.org/2000/svg">
  <defs>
    <linearGradient id="caseOneBg" x1="40" y1="24" x2="440" y2="376" gradientUnits="userSpaceOnUse">
      <stop stop-color="#0E1126" />
      <stop offset="1" stop-color="#131F3B" />
    </linearGradient>
    <linearGradient id="caseOneAccent" x1="120" y1="90" x2="360" y2="310" gradientUnits="userSpaceOnUse">
      <stop stop-color="#7B61FF" />
      <stop offset="1" stop-color="#4CE0D2" />
    </linearGradient>
  </defs>
  <rect x="24" y="16" width="432" height="368" rx="32" fill="url(#caseOneBg)" />
  <rect x="82" y="80" width="316" height="208" rx="24" fill="#111935" stroke="#274163" stroke-opacity="0.55" />
  <rect x="110" y="112" width="144" height="14" rx="7" fill="#7B61FF" />
  <rect x="110" y="146" width="210" height="14" rx="7" fill="#4CE0D2" fill-opacity="0.45" />
  <rect x="110" y="180" width="196" height="14" rx="7" fill="#7B61FF" fill-opacity="0.38" />
  <rect x="110" y="214" width="168" height="14" rx="7" fill="#4CE0D2" fill-opacity="0.34" />
  <rect x="110" y="248" width="228" height="14" rx="7" fill="#7B61FF" fill-opacity="0.32" />
  <circle cx="332" cy="182" r="60" stroke="#4CE0D2" stroke-opacity="0.5" stroke-width="2" />
  <circle cx="332" cy="182" r="34" fill="#151F3D" stroke="#7B61FF" stroke-width="2" />
  <path d="M332 164L346 184H318L332 164Z" fill="#7B61FF" fill-opacity="0.46" />
  <rect x="24" y="16" width="432" height="368" rx="32" stroke="url(#caseOneAccent)" stroke-opacity="0.4" stroke-width="2" stroke-dasharray="14 18" />
</svg>
